<svg width="32" height="32" viewBox="0 0 32 32" fill="none" xmlns="http://www.w3.org/2000/svg">
<rect width="32" height="32" rx="6" fill="white"/>
<path d="M25.2451 26.8551V27.2608C25.3724 27.2737 25.4997 27.2834 25.627 27.2898C25.7543 27.2962 25.8816 27.2995 26.0088 27.2995C26.8009 27.2995 27.6 27.1835 28.4062 26.9517L28.7032 28.652C27.7485 28.8839 26.808 28.9998 25.8816 28.9998C24.6935 28.9998 23.8343 28.7486 23.3039 28.2462C22.7735 27.7374 22.5083 26.9646 22.5083 25.9276C22.5083 24.8907 22.7735 24.121 23.3039 23.6187C23.8413 23.1099 24.7006 22.8555 25.8816 22.8555C26.4756 22.8555 26.9706 22.8909 27.3666 22.9617C27.7627 23.0261 28.0809 23.1389 28.3213 23.2999C28.5688 23.4544 28.7421 23.667 28.8411 23.9375C28.9472 24.2015 29.0002 24.5365 29.0002 24.9422C29.0002 25.2771 28.9366 25.567 28.8093 25.8117C28.6891 26.05 28.484 26.2464 28.194 26.401C27.9041 26.5556 27.5187 26.6715 27.0378 26.7488C26.5569 26.8196 25.9593 26.8551 25.2451 26.8551ZM25.2451 25.0388V25.5122H25.7649C26.076 25.5122 26.2988 25.4832 26.4332 25.4253C26.5746 25.3673 26.6453 25.232 26.6453 25.0195V24.5461H26.1255C25.8144 24.5461 25.5881 24.5751 25.4466 24.6331C25.3123 24.691 25.2451 24.8263 25.2451 25.0388Z" fill="#D70A0D"/>
<path d="M20.5351 28.8258H17.0982L15.5071 23.0293H18.0529L18.753 26.797H18.8803L19.5804 23.0293H22.1263L20.5351 28.8258Z" fill="#D70A0D"/>
<path d="M14.8664 28.8253H12.3205V23.3186L14.8664 23.0288V28.8253ZM12.1826 21.9371C12.1826 21.7632 12.2038 21.6183 12.2463 21.5024C12.2887 21.38 12.3629 21.2834 12.469 21.2125C12.5751 21.1353 12.7201 21.0805 12.9039 21.0483C13.0878 21.0161 13.3212 21 13.604 21C13.8869 21 14.1168 21.0161 14.2936 21.0483C14.4774 21.0805 14.6224 21.1353 14.7285 21.2125C14.8345 21.2834 14.9088 21.38 14.9512 21.5024C14.9937 21.6183 15.0149 21.7632 15.0149 21.9371C15.0149 22.111 14.9937 22.2559 14.9512 22.3718C14.9088 22.4878 14.8345 22.5844 14.7285 22.6617C14.6224 22.7325 14.4774 22.784 14.2936 22.8162C14.1168 22.842 13.8869 22.8549 13.604 22.8549C13.399 22.8549 13.208 22.8484 13.0312 22.8356C12.8615 22.8227 12.713 22.7873 12.5857 22.7293C12.4584 22.6649 12.3594 22.5715 12.2887 22.4491C12.218 22.3268 12.1826 22.1561 12.1826 21.9371Z" fill="#D70A0D"/>
<path d="M8.38452 21.2891L10.9304 21.1152V27.1629C11.0647 27.1887 11.185 27.208 11.291 27.2209C11.3971 27.2338 11.4855 27.2434 11.5562 27.2499L11.4395 28.9502C10.3576 28.9502 9.63977 28.8922 9.28618 28.7763C8.98916 28.6797 8.76287 28.5541 8.60729 28.3995C8.45878 28.245 8.38452 28.0228 8.38452 27.7329V21.2891Z" fill="#D70A0D"/>
<circle cx="5" cy="26" r="2" fill="#D70A0D"/>
<path d="M26.1572 7.71044V11.7825H24.262V3.1981L26.1572 3V5.42125C26.5626 5.12777 27.0101 4.98102 27.4997 4.98102C27.9946 4.98102 28.3684 5.11676 28.6211 5.38824C28.8738 5.65237 29.0002 6.0229 29.0002 6.49981V11.7825H27.1049V7.16015H26.8127C26.581 7.16015 26.4126 7.19317 26.3073 7.2592C26.2073 7.32524 26.1572 7.47565 26.1572 7.71044Z" fill="black"/>
<path d="M23.3866 9.79901L23.5051 11.703C23.1787 11.8864 22.7549 11.9781 22.2337 11.9781C21.3492 11.9781 20.7095 11.692 20.3147 11.1197C19.9198 10.5401 19.7224 9.6596 19.7224 8.47833C19.7224 7.29705 19.9198 6.42026 20.3147 5.84797C20.7095 5.26833 21.3492 4.97852 22.2337 4.97852C22.797 4.97852 23.2208 5.07023 23.5051 5.25366L23.2761 7.04759C23.1076 7.00356 22.9576 6.97055 22.8259 6.94853C22.6943 6.91919 22.5785 6.90451 22.4785 6.90451C21.9994 6.90451 21.7598 7.1393 21.7598 7.60888V9.9751C21.8493 9.99711 21.952 10.0155 22.0678 10.0301C22.1889 10.0448 22.3232 10.0521 22.4706 10.0521C22.7654 10.0521 23.0707 9.96776 23.3866 9.79901Z" fill="black"/>
<path d="M16.6542 6.88371H16.1804V5.17783H16.6542V4.12128L18.5495 3.46094V5.17783H19.205V6.88371H18.5495V9.88826C18.6285 9.91027 18.7154 9.93229 18.8101 9.9543C18.9049 9.96897 19.0049 9.97998 19.1102 9.98731L19.0233 11.9243C18.1599 11.9243 17.5966 11.8583 17.3334 11.7262C17.1123 11.6162 16.9438 11.4768 16.828 11.308C16.7122 11.1319 16.6542 10.8751 16.6542 10.5376V6.88371Z" fill="black"/>
<path d="M13.3403 4.97852C14.8565 4.97852 15.6146 5.70489 15.6146 7.15764V11.78H14.667L14.13 11.0316C14.0352 11.1784 13.922 11.3105 13.7904 11.4279C13.6641 11.5452 13.5272 11.6443 13.3798 11.725C13.2324 11.8057 13.0823 11.8681 12.9296 11.9121C12.777 11.9561 12.6296 11.9781 12.4874 11.9781C12.2189 11.9781 11.9767 11.9378 11.7609 11.8571C11.5503 11.7837 11.3713 11.6626 11.2239 11.4939C11.0765 11.3251 10.9633 11.1013 10.8843 10.8225C10.8054 10.5437 10.7659 10.2026 10.7659 9.79901C10.7659 8.21419 11.624 7.42178 13.3403 7.42178H13.7193V6.94853C13.6193 6.9412 13.5272 6.93386 13.443 6.92652C13.364 6.91919 13.2903 6.91552 13.2218 6.91552C12.5111 6.91552 11.8978 7.03658 11.3818 7.27871L11.1528 5.38573C11.7846 5.11425 12.5137 4.97852 13.3403 4.97852ZM12.6769 9.51286V10.0521H13.0718C13.3456 10.0521 13.5246 10.0081 13.6088 9.92007C13.6825 9.82469 13.7193 9.71096 13.7193 9.57889V8.95157H13.3324C13.106 8.95157 12.9402 8.98459 12.8349 9.05062C12.7296 9.11666 12.6769 9.27074 12.6769 9.51286Z" fill="black"/>
<path d="M5.65339 11.78V7.15764H5.51914C5.43491 7.15764 5.35331 7.16131 5.27434 7.16865C5.20063 7.17599 5.13482 7.20167 5.07691 7.24569C5.019 7.28237 4.97425 7.34107 4.94266 7.42178C4.91107 7.50249 4.89528 7.61621 4.89528 7.76296V11.78H3V5.17662H3.94764L4.37408 5.78193C4.7584 5.24632 5.26381 4.97852 5.8903 4.97852C6.51153 4.97852 6.9643 5.15828 7.24859 5.51779C7.64344 5.15828 8.09093 4.97852 8.59108 4.97852C9.10175 4.97852 9.4966 5.11425 9.77563 5.38573C10.0599 5.64986 10.2021 6.02039 10.2021 6.4973V11.78H8.30679V7.15764H8.17254C8.09883 7.15764 8.02513 7.16131 7.95142 7.16865C7.87772 7.17599 7.81191 7.198 7.754 7.23468C7.70135 7.26403 7.65397 7.31539 7.61185 7.38876C7.575 7.46213 7.55394 7.56118 7.54867 7.68592V11.78H5.65339Z" fill="black"/>
<path d="M24.5565 13.4241C25.023 13.1414 25.6621 13 26.4738 13C27.2917 13 28.0398 13.1245 28.7183 13.3736L28.4639 15.0193C28.1791 14.9251 27.8975 14.8578 27.6188 14.8174C27.3401 14.777 27.0554 14.7568 26.7646 14.7568C26.6798 14.7568 26.5738 14.7602 26.4466 14.7669C26.3254 14.7736 26.1861 14.7871 26.0286 14.8073V15.191C26.3618 15.191 26.704 15.2112 27.0554 15.2515C27.4068 15.2852 27.7248 15.3727 28.0095 15.5141C28.3003 15.6487 28.5366 15.854 28.7183 16.1299C28.9061 16.3992 29 16.7694 29 17.2406C29 17.5704 28.9667 17.8666 28.9 18.1291C28.8334 18.3848 28.7304 18.5901 28.5911 18.745C28.4457 18.8998 28.2942 19.0243 28.1367 19.1185C27.9853 19.2128 27.7854 19.2801 27.537 19.3205C27.3431 19.3541 27.1341 19.3777 26.91 19.3911C26.6919 19.4113 26.4557 19.4214 26.2012 19.4214C25.3107 19.4214 24.4959 19.3036 23.7568 19.0681L24.0294 17.3516C24.3384 17.4526 24.6564 17.53 24.9836 17.5839C25.3107 17.6377 25.653 17.6646 26.0104 17.6646C26.174 17.6646 26.3284 17.6613 26.4738 17.6545C26.6253 17.6478 26.7707 17.6343 26.91 17.6141V17.2305C26.3284 17.2305 25.8408 17.1901 25.447 17.1093C25.0593 17.0218 24.7443 16.8906 24.502 16.7155C24.2657 16.5405 24.0961 16.3117 23.9931 16.029C23.8962 15.7463 23.8477 15.4097 23.8477 15.0193C23.8477 14.2385 24.084 13.7068 24.5565 13.4241Z" fill="black"/>
<path d="M17.5427 21.2388V13.1817H18.6332L19.033 13.7875C19.3541 13.2625 19.9477 13 20.814 13C21.2502 13 21.6167 13.0875 21.9135 13.2625C22.2104 13.4375 22.4497 13.6731 22.6314 13.9693C22.8192 14.2587 22.9525 14.5986 23.0312 14.989C23.116 15.3794 23.1585 15.7867 23.1585 16.2107C23.1585 16.6213 23.1221 17.0083 23.0494 17.3718C22.9767 17.7353 22.8556 18.0584 22.6859 18.3411C22.5163 18.6171 22.2922 18.8358 22.0135 18.9974C21.7348 19.1589 21.3895 19.2397 20.9776 19.2397H19.7236V21.0571L17.5427 21.2388ZM19.7236 15.2213V17.6545H20.0598C20.3264 17.6545 20.5172 17.6242 20.6323 17.5637C20.7534 17.5031 20.814 17.3617 20.814 17.1396V14.7669H20.4778C20.3203 14.7669 20.1931 14.7736 20.0962 14.7871C19.9992 14.8006 19.9144 14.8443 19.8417 14.9184C19.769 14.9857 19.7296 15.0866 19.7236 15.2213Z" fill="black"/>
<path d="M11 13.1816H13.1809V17.6544H13.5171C13.7836 17.6544 13.9745 17.6241 14.0896 17.5636C14.2107 17.503 14.2713 17.3616 14.2713 17.1395V13.1816H16.4522V19.2396H15.3617L14.7256 18.553C14.2895 19.1319 13.6685 19.4213 12.8628 19.4213C12.2146 19.4213 11.7421 19.2699 11.4453 18.967C11.1484 18.6574 11 18.1424 11 17.4222V13.1816Z" fill="black"/>
</svg>
