<svg width="70" height="70" viewBox="0 0 70 70" fill="none" xmlns="http://www.w3.org/2000/svg">
<rect width="70" height="70" rx="10" fill="white"/>
<circle cx="13" cy="55" r="4" fill="#D70A0D"/>
<path d="M18.7538 45L23.8838 44.79V63H18.7538V45ZM27.8975 47.49C27.2175 47.49 26.6275 47.26 26.1275 46.8C25.6475 46.34 25.4075 45.79 25.4075 45.15C25.4075 44.51 25.6475 43.96 26.1275 43.5C26.6275 43.04 27.2175 42.81 27.8975 42.81C28.5775 42.81 29.1575 43.04 29.6375 43.5C30.1175 43.96 30.3575 44.51 30.3575 45.15C30.3575 45.79 30.1175 46.34 29.6375 46.8C29.1575 47.26 28.5775 47.49 27.8975 47.49ZM25.3175 49.2H30.4475V63H25.3175V49.2ZM40.6711 49.2H46.0411L41.8411 63H34.7311L30.5311 49.2H35.9011L38.1511 59.79H38.4511L40.6711 49.2ZM54.4006 59.4C54.9006 59.4 55.8306 59.35 57.1906 59.25C57.3706 59.25 57.7006 59.23 58.1806 59.19L58.6306 62.28C57.0906 63 55.0906 63.36 52.6306 63.36C50.3306 63.36 48.5606 62.78 47.3206 61.62C46.1006 60.46 45.4906 58.71 45.4906 56.37C45.4906 55.17 45.6406 54.01 45.9406 52.89C46.2606 51.77 46.6206 50.99 47.0206 50.55C47.4406 50.11 48.2206 49.73 49.3606 49.41C50.5006 49.09 51.6306 48.93 52.7506 48.93C54.5506 48.93 55.9006 49.25 56.8006 49.89C57.7006 50.53 58.2906 51.42 58.5706 52.56C58.8506 53.68 58.9906 55.19 58.9906 57.09C57.6306 57.17 56.3006 57.21 55.0006 57.21H50.7406C50.7406 57.85 50.8706 58.33 51.1306 58.65C51.4106 58.97 51.8006 59.18 52.3006 59.28C52.8006 59.36 53.5006 59.4 54.4006 59.4ZM51.0406 52.5C50.9206 52.56 50.8306 52.82 50.7706 53.28C50.7106 53.74 50.6706 54.26 50.6506 54.84H52.2106C53.1506 54.84 53.8306 54.83 54.2506 54.81C54.2506 53.85 54.1106 53.17 53.8306 52.77C53.5706 52.37 53.1106 52.17 52.4506 52.17C51.9106 52.17 51.4406 52.28 51.0406 52.5Z" fill="#D70A0D"/>
<path d="M27.5512 11.16C27.8712 11.64 28.0312 13.5 28.0312 16.74V24H22.9012V17.25V15.63C22.9012 14.89 22.8312 14.45 22.6912 14.31C22.5312 14.15 22.1912 14.07 21.6712 14.07L21.3112 14.1C20.6912 14.14 20.1012 14.28 19.5412 14.52C19.5612 14.94 19.5712 15.68 19.5712 16.74V24H14.4412V17.25V15.45C14.4412 14.83 14.3712 14.45 14.2312 14.31C14.0712 14.15 13.7312 14.07 13.2112 14.07L12.8512 14.1C12.2912 14.12 11.7112 14.25 11.1112 14.49V24H5.98117V10.2H10.1512L10.6912 12.45C11.3512 11.57 12.1112 10.93 12.9712 10.53C13.8312 10.11 14.7012 9.9 15.5812 9.9C16.3212 9.9 17.0212 10.01 17.6812 10.23C18.3612 10.45 18.8312 10.76 19.0912 11.16C19.2112 11.34 19.3112 11.67 19.3912 12.15C20.0312 11.37 20.7612 10.8 21.5812 10.44C22.4012 10.08 23.2212 9.9 24.0412 9.9C24.7812 9.9 25.4812 10.01 26.1412 10.23C26.8212 10.45 27.2912 10.76 27.5512 11.16ZM35.5748 18.33C35.5748 18.69 35.5848 19.07 35.6048 19.47C35.6248 19.85 35.6848 20.09 35.7848 20.19C35.9248 20.33 36.4148 20.4 37.2548 20.4L38.2748 20.37C38.4548 21.33 38.5448 22.44 38.5448 23.7C38.1648 23.84 37.6048 23.97 36.8648 24.09C36.1448 24.21 35.4548 24.27 34.7948 24.27C33.4148 24.27 32.3448 23.97 31.5848 23.37C30.8448 22.75 30.4748 21.8 30.4748 20.52V13.14H28.2248V10.41L30.4748 10.2L31.8248 6.9L35.5748 6.69V10.2H38.7548V13.14H35.5748V18.33ZM50.699 23.58C49.079 24.12 47.269 24.39 45.269 24.39C43.029 24.39 41.349 23.83 40.229 22.71C39.129 21.57 38.579 19.8 38.579 17.4C38.579 16.22 38.739 15.06 39.059 13.92C39.379 12.76 39.719 11.98 40.079 11.58C40.499 11.12 41.319 10.73 42.539 10.41C43.779 10.09 45.059 9.93 46.379 9.93C47.759 9.93 49.149 10.05 50.549 10.29C50.509 10.79 50.439 11.38 50.339 12.06C50.259 12.72 50.169 13.31 50.069 13.83C48.829 13.75 47.659 13.71 46.559 13.71C45.479 13.71 44.789 13.77 44.489 13.89C44.329 13.95 44.179 14.36 44.039 15.12C43.919 15.88 43.859 16.59 43.859 17.25C43.859 18.13 43.979 18.81 44.219 19.29C44.479 19.75 44.879 20.07 45.419 20.25C45.959 20.43 46.689 20.52 47.609 20.52C48.009 20.52 48.889 20.48 50.249 20.4L50.699 23.58ZM64.5691 11.07C64.7491 11.29 64.8791 11.84 64.9591 12.72C65.0591 13.6 65.1091 14.94 65.1091 16.74V24H59.9791V16.8C59.9791 16.72 59.9791 16.33 59.9791 15.63C59.9791 14.91 59.9291 14.47 59.8291 14.31C59.7691 14.23 59.6191 14.17 59.3791 14.13C59.1591 14.09 58.8991 14.07 58.5991 14.07L58.0891 14.1C57.5291 14.12 56.9491 14.25 56.3491 14.49V24H51.2191V6L56.3491 5.79V9.3C56.3491 10.74 56.2991 11.7 56.1991 12.18L56.2291 12.21C57.5891 10.67 59.2191 9.9 61.1191 9.9C61.8391 9.9 62.5091 10 63.1291 10.2C63.7691 10.4 64.2491 10.69 64.5691 11.07Z" fill="black"/>
<path d="M30.6689 27.2V41H26.4989L25.9289 38.69C24.4889 40.43 22.7689 41.3 20.7689 41.3C20.0489 41.3 19.3689 41.2 18.7289 41C18.1089 40.8 17.6389 40.51 17.3189 40.13C17.1389 39.91 16.9989 39.36 16.8989 38.48C16.8189 37.6 16.7789 36.26 16.7789 34.46V27.2H21.9089V34.4C21.9089 34.8 21.9189 35.27 21.9389 35.81C21.9589 36.35 22.0189 36.69 22.1189 36.83C22.2589 37.03 22.6589 37.13 23.3189 37.13L23.7989 37.1C24.3589 37.08 24.9389 36.95 25.5389 36.71V27.2H30.6689ZM42.3086 26.9C43.7486 26.9 44.8886 27.38 45.7286 28.34C46.5886 29.28 47.0186 30.93 47.0186 33.29C47.0186 35.05 46.8486 36.49 46.5086 37.61C46.1686 38.71 45.7786 39.44 45.3386 39.8C44.8986 40.16 44.1286 40.45 43.0286 40.67C41.9486 40.89 40.8286 41 39.6686 41C39.3286 41 38.7586 40.98 37.9586 40.94V45.2L32.8286 45.41V27.2H37.0286L37.5386 29.33C38.0586 28.59 38.7186 28 39.5186 27.56C40.3386 27.12 41.2686 26.9 42.3086 26.9ZM41.1086 37.34C41.3286 37.18 41.4886 36.73 41.5886 35.99C41.6886 35.23 41.7386 34.51 41.7386 33.83C41.7386 32.71 41.5986 31.88 41.3186 31.34C41.0386 30.8 40.4786 30.53 39.6386 30.53C39.0386 30.53 38.4786 30.59 37.9586 30.71V37.37L38.7986 37.46C39.0586 37.48 39.4286 37.49 39.9086 37.49C40.5886 37.49 40.9886 37.44 41.1086 37.34ZM59.8898 36.32C59.8898 38.1 59.3198 39.38 58.1798 40.16C57.0598 40.94 55.4598 41.33 53.3798 41.33C51.9198 41.33 50.2398 41.12 48.3398 40.7C48.3798 40.3 48.4698 39.73 48.6098 38.99C48.7698 38.23 48.8998 37.65 48.9998 37.25C49.7198 37.37 50.5198 37.47 51.3998 37.55C52.2798 37.61 53.0298 37.64 53.6498 37.64C54.1898 37.64 54.5198 37.61 54.6398 37.55C54.6598 37.53 54.6798 37.48 54.6998 37.4C54.7398 37.3 54.7598 37.2 54.7598 37.1C54.7598 36.7 54.5098 36.43 54.0098 36.29C53.8498 36.25 53.2398 36.08 52.1798 35.78C51.1198 35.48 50.2498 34.94 49.5698 34.16C48.9098 33.36 48.5798 32.37 48.5798 31.19C48.5798 30.57 48.7198 29.88 48.9998 29.12C49.2798 28.36 49.5798 27.88 49.8998 27.68C50.1398 27.52 50.7198 27.36 51.6398 27.2C52.5598 27.02 53.4098 26.93 54.1898 26.93C55.8498 26.93 57.5198 27.05 59.1998 27.29C59.1998 27.65 59.1498 28.26 59.0498 29.12C58.9498 29.96 58.8598 30.49 58.7798 30.71C57.0798 30.49 55.7098 30.38 54.6698 30.38C54.1298 30.38 53.7798 30.41 53.6198 30.47C53.5798 30.49 53.5398 30.55 53.4998 30.65C53.4598 30.73 53.4398 30.84 53.4398 30.98C53.4398 31.26 53.5298 31.46 53.7098 31.58C53.8898 31.72 54.3598 31.89 55.1198 32.09C56.0198 32.35 56.7898 32.62 57.4298 32.9C58.0898 33.18 58.6598 33.6 59.1398 34.16C59.6398 34.72 59.8898 35.44 59.8898 36.32Z" fill="black"/>
</svg>
