<svg width="694" height="101" viewBox="0 0 694 101" fill="none" xmlns="http://www.w3.org/2000/svg">
<path d="M89.5993 30.1768C90.9286 32.1476 91.5932 39.7841 91.5932 53.0866V82.8939H70.2837V48.5293C70.2837 45.4911 69.993 43.6846 69.4114 43.1098C68.7468 42.4528 67.3345 42.1244 65.1745 42.1244L63.6791 42.2476C61.1037 42.4118 58.6529 42.9866 56.3267 43.972C56.4098 45.6963 56.4513 48.7346 56.4513 53.0866V82.8939H35.1419V47.7902C35.1419 45.2447 34.8511 43.6846 34.2696 43.1098C33.6049 42.4528 32.1926 42.1244 30.0326 42.1244L28.5372 42.2476C26.211 42.3297 23.8018 42.8634 21.3094 43.8488V82.8939H0V26.2354H17.3217L19.5648 35.4732C22.3064 31.8602 25.4633 29.2325 29.0357 27.5902C32.608 25.8659 36.2219 25.0037 39.8773 25.0037C42.9512 25.0037 45.8589 25.4553 48.6005 26.3585C51.4251 27.2618 53.3774 28.5346 54.4574 30.1768C54.9559 30.9159 55.3713 32.2707 55.7036 34.2415C58.3621 31.039 61.3944 28.6988 64.8006 27.2207C68.2068 25.7427 71.613 25.0037 75.0192 25.0037C78.093 25.0037 81.0008 25.4553 83.7423 26.3585C86.567 27.2618 88.5193 28.5346 89.5993 30.1768Z" fill="black"/>
<path d="M130.655 82.8939L128.661 75.1341C124.839 81.2927 119.522 84.372 112.71 84.372C107.144 84.372 102.574 82.8528 99.002 79.8146C95.5128 76.6943 93.7681 72.3423 93.7681 66.7585C93.7681 63.3098 94.765 60.3126 96.7589 57.7671C98.8359 55.1394 101.661 53.2919 105.233 52.2244C109.885 50.9106 117.071 50.1715 126.792 50.0073C126.792 44.5878 126.542 41.7138 126.044 41.3854C125.628 41.0569 124.299 40.8927 122.056 40.8927C120.644 40.8927 118.691 40.9748 116.199 41.139C112.211 41.3033 106.811 41.7549 99.9989 42.4939C99.3343 38.0598 98.8359 33.2972 98.5035 28.2061C102.907 27.3028 107.517 26.5638 112.336 25.989C117.154 25.3321 121.475 25.0037 125.296 25.0037C131.942 25.0037 136.927 26.1122 140.25 28.3293C143.573 30.4642 145.733 33.2972 146.73 36.8281C147.727 40.3589 148.184 44.8341 148.101 50.2537L147.976 68.3598L148.35 82.8939H130.655ZM119.938 70.5768C122.098 70.5768 124.382 70.1663 126.792 69.3451V60.2305H125.795C119.647 60.2305 116.241 60.5589 115.576 61.2159C115.161 61.6264 114.828 62.2423 114.579 63.0634C114.413 63.8846 114.33 64.6646 114.33 65.4037C114.33 67.3744 114.787 68.7293 115.701 69.4683C116.614 70.2073 118.027 70.5768 119.938 70.5768Z" fill="black"/>
<path d="M179.157 59.6146C179.157 61.0927 179.198 62.6528 179.281 64.2951C179.364 65.8553 179.614 66.8407 180.029 67.2512C180.611 67.826 182.646 68.1134 186.135 68.1134L190.372 67.9902C191.12 71.9317 191.494 76.489 191.494 81.6622C189.915 82.237 187.589 82.7707 184.515 83.2634C181.524 83.7561 178.658 84.0024 175.917 84.0024C170.184 84.0024 165.74 82.7707 162.583 80.3073C159.509 77.7618 157.972 73.8614 157.972 68.6061V38.3061H148.626V27.0976L157.972 26.2354L163.58 12.6866L179.157 11.8244V26.2354H192.366V38.3061H179.157V59.6146Z" fill="black"/>
<path d="M241.981 81.1695C235.252 83.3866 227.733 84.4951 219.425 84.4951C210.121 84.4951 203.142 82.1959 198.49 77.5976C193.921 72.9171 191.636 65.65 191.636 55.7963C191.636 50.9516 192.301 46.189 193.63 41.5085C194.959 36.7459 196.371 33.5435 197.867 31.9012C199.611 30.0126 203.018 28.4114 208.085 27.0976C213.236 25.7837 218.553 25.1268 224.036 25.1268C229.769 25.1268 235.543 25.6195 241.358 26.6049C241.192 28.6577 240.901 31.0801 240.486 33.872C240.153 36.5817 239.779 39.0041 239.364 41.139C234.213 40.8106 229.353 40.6463 224.784 40.6463C220.298 40.6463 217.432 40.8927 216.185 41.3854C215.521 41.6317 214.898 43.315 214.316 46.4354C213.818 49.5557 213.568 52.4707 213.568 55.1805C213.568 58.7935 214.067 61.5854 215.064 63.5561C216.144 65.4447 217.805 66.7585 220.049 67.4976C222.292 68.2366 225.324 68.6061 229.146 68.6061C230.807 68.6061 234.462 68.4419 240.112 68.1134L241.981 81.1695Z" fill="black"/>
<path d="M299.596 29.8073C300.343 30.7106 300.883 32.9687 301.216 36.5817C301.631 40.1947 301.839 45.6963 301.839 53.0866V82.8939H280.529V53.3329C280.529 53.0045 280.529 51.4033 280.529 48.5293C280.529 45.5732 280.322 43.7667 279.906 43.1098C279.657 42.7813 279.034 42.535 278.037 42.3707C277.123 42.2065 276.043 42.1244 274.797 42.1244L272.679 42.2476C270.352 42.3297 267.943 42.8634 265.451 43.8488V82.8939H244.141V8.99147L265.451 8.12927V22.5402C265.451 28.4524 265.243 32.3939 264.828 34.3646L264.952 34.4878C270.602 28.165 277.372 25.0037 285.265 25.0037C288.256 25.0037 291.039 25.4142 293.614 26.2354C296.273 27.0565 298.267 28.2472 299.596 29.8073Z" fill="black"/>
<path d="M364.022 26.2354V82.8939H346.7L344.332 73.4098C338.351 80.5537 331.206 84.1256 322.898 84.1256C319.907 84.1256 317.083 83.715 314.424 82.8939C311.849 82.0728 309.896 80.8821 308.567 79.322C307.819 78.4187 307.238 76.1606 306.823 72.5476C306.49 68.9346 306.324 63.4329 306.324 56.0427V26.2354H327.633V55.7963C327.633 57.4386 327.675 59.3683 327.758 61.5854C327.841 63.8024 328.09 65.1984 328.506 65.7732C329.087 66.5943 330.749 67.0049 333.49 67.0049L335.484 66.8817C337.811 66.7996 340.22 66.2659 342.712 65.2805V26.2354H364.022Z" fill="black"/>
<path d="M408.633 25.0037C414.615 25.0037 419.35 26.9744 422.84 30.9159C426.412 34.7752 428.198 41.5496 428.198 51.239C428.198 58.465 427.492 64.3772 426.08 68.9756C424.667 73.4919 423.047 76.489 421.22 77.9671C419.392 79.4451 416.193 80.6358 411.624 81.539C407.138 82.4423 402.486 82.8939 397.667 82.8939C396.255 82.8939 393.887 82.8118 390.564 82.6476V100.138L369.254 101V26.2354H386.701L388.819 34.9805C390.979 31.9423 393.721 29.5199 397.044 27.7134C400.45 25.9069 404.313 25.0037 408.633 25.0037ZM403.649 67.8671C404.562 67.2102 405.227 65.3626 405.642 62.3244C406.058 59.2041 406.266 56.248 406.266 53.4561C406.266 48.8577 405.684 45.45 404.521 43.2329C403.358 41.0159 401.032 39.9073 397.542 39.9073C395.05 39.9073 392.724 40.1537 390.564 40.6463V67.9902L394.053 68.3598C395.133 68.4419 396.67 68.4829 398.664 68.4829C401.489 68.4829 403.15 68.2776 403.649 67.8671Z" fill="black"/>
<path d="M477.925 63.6793C477.925 70.9874 475.557 76.2427 470.822 79.4451C466.169 82.6476 459.523 84.2488 450.883 84.2488C444.818 84.2488 437.84 83.3866 429.948 81.6622C430.114 80.0199 430.488 77.6797 431.069 74.6415C431.734 71.5211 432.274 69.1398 432.689 67.4976C435.68 67.9902 439.003 68.4008 442.658 68.7293C446.314 68.9756 449.429 69.0988 452.005 69.0988C454.248 69.0988 455.619 68.9756 456.117 68.7293C456.2 68.6472 456.283 68.4419 456.366 68.1134C456.532 67.7028 456.616 67.2923 456.616 66.8817C456.616 65.2394 455.577 64.1309 453.5 63.5561C452.836 63.3919 450.302 62.6939 445.899 61.4622C441.495 60.2305 437.882 58.0134 435.057 54.811C432.315 51.5264 430.945 47.4618 430.945 42.6171C430.945 40.0715 431.526 37.2386 432.689 34.1183C433.852 30.998 435.098 29.0272 436.428 28.2061C437.425 27.5492 439.834 26.8923 443.655 26.2354C447.477 25.4963 451.008 25.1268 454.248 25.1268C461.143 25.1268 468.08 25.6195 475.059 26.6049C475.059 28.0829 474.851 30.5874 474.436 34.1183C474.02 37.5671 473.646 39.7431 473.314 40.6463C466.253 39.7431 460.562 39.2915 456.242 39.2915C453.999 39.2915 452.545 39.4146 451.88 39.661C451.714 39.7431 451.548 39.9894 451.382 40.4C451.215 40.7285 451.132 41.1801 451.132 41.7549C451.132 42.9045 451.506 43.7256 452.254 44.2183C453.002 44.7931 454.954 45.4911 458.111 46.3122C461.849 47.3797 465.048 48.4882 467.706 49.6378C470.448 50.7874 472.816 52.5118 474.81 54.811C476.886 57.1102 477.925 60.0663 477.925 63.6793Z" fill="black"/>
<path d="M526.861 8.99147L548.17 8.12927V82.8939H526.861V8.99147Z" fill="#D70A0D"/>
<path d="M564.843 19.2146C562.018 19.2146 559.567 18.2703 557.49 16.3817C555.496 14.4931 554.5 12.235 554.5 9.60732C554.5 6.97967 555.496 4.72154 557.49 2.83293C559.567 0.944309 562.018 0 564.843 0C567.667 0 570.077 0.944309 572.07 2.83293C574.064 4.72154 575.061 6.97967 575.061 9.60732C575.061 12.235 574.064 14.4931 572.07 16.3817C570.077 18.2703 567.667 19.2146 564.843 19.2146ZM554.126 26.2354H575.435V82.8939H554.126V26.2354Z" fill="#D70A0D"/>
<path d="M617.903 26.2354H640.209L622.763 82.8939H593.229L575.783 26.2354H598.089L607.435 69.7146H608.681L617.903 26.2354Z" fill="#D70A0D"/>
<path d="M674.934 68.1134C677.011 68.1134 680.874 67.9081 686.523 67.4976C687.271 67.4976 688.641 67.4155 690.635 67.2512L692.505 79.9378C686.108 82.8939 677.8 84.372 667.581 84.372C658.027 84.372 650.675 81.9907 645.524 77.2281C640.456 72.4655 637.923 65.2805 637.923 55.6732C637.923 50.7463 638.546 45.9837 639.792 41.3854C641.121 36.787 642.616 33.5846 644.278 31.7781C646.023 29.9715 649.263 28.4114 653.998 27.0976C658.734 25.7837 663.427 25.1268 668.08 25.1268C675.557 25.1268 681.164 26.4407 684.903 29.0683C688.641 31.6959 691.092 35.35 692.255 40.0305C693.418 44.6289 694 50.8285 694 58.6293C688.351 58.9577 682.826 59.122 677.426 59.122H659.73C659.73 61.7496 660.27 63.7203 661.35 65.0341C662.514 66.348 664.134 67.2102 666.21 67.6207C668.287 67.9492 671.195 68.1134 674.934 68.1134ZM660.977 39.7841C660.478 40.0305 660.104 41.098 659.855 42.9866C659.606 44.8752 659.44 47.0102 659.357 49.3915H665.837C669.741 49.3915 672.566 49.3504 674.311 49.2683C674.311 45.3268 673.729 42.535 672.566 40.8927C671.486 39.2504 669.575 38.4293 666.834 38.4293C664.591 38.4293 662.638 38.8809 660.977 39.7841Z" fill="#D70A0D"/>
<path d="M517.774 54.1541C517.774 63.2241 510.335 70.5768 501.158 70.5768C491.982 70.5768 484.543 63.2241 484.543 54.1541C484.543 45.084 491.982 37.7313 501.158 37.7313C510.335 37.7313 517.774 45.084 517.774 54.1541Z" fill="#D70A0D"/>
</svg>
