<svg width="322" height="43" viewBox="0 0 322 43" fill="none" xmlns="http://www.w3.org/2000/svg">
<path d="M15.0041 32.4004V15.6004H14.3241C13.8974 15.6004 13.4841 15.6137 13.0841 15.6404C12.7107 15.6671 12.3774 15.7604 12.0841 15.9204C11.7907 16.0537 11.5641 16.2671 11.4041 16.5604C11.2441 16.8537 11.1641 17.2671 11.1641 17.8004V32.4004H1.56406V8.40039H6.36406L8.52406 10.6004C10.4707 8.65372 13.0307 7.68039 16.2041 7.68039C19.3507 7.68039 21.6441 8.33372 23.0841 9.64039C25.0841 8.33372 27.3507 7.68039 29.8841 7.68039C32.4707 7.68039 34.4707 8.17372 35.8841 9.16039C37.3241 10.1204 38.0441 11.4671 38.0441 13.2004V32.4004H28.4441V15.6004H27.7641C27.3907 15.6004 27.0174 15.6137 26.6441 15.6404C26.2707 15.6671 25.9374 15.7471 25.6441 15.8804C25.3774 15.9871 25.1374 16.1737 24.9241 16.4404C24.7374 16.7071 24.6307 17.0671 24.6041 17.5204V32.4004H15.0041ZM53.9397 7.68039C61.6197 7.68039 65.4597 10.3204 65.4597 15.6004V32.4004H60.6597L57.9397 29.6804C57.4597 30.2137 56.8864 30.6937 56.2197 31.1204C55.5797 31.5471 54.8864 31.9071 54.1397 32.2004C53.393 32.4937 52.633 32.7204 51.8597 32.8804C51.0864 33.0404 50.3397 33.1204 49.6197 33.1204C48.2597 33.1204 47.033 32.9737 45.9397 32.6804C44.873 32.4137 43.9664 31.9737 43.2197 31.3604C42.473 30.7471 41.8997 29.9337 41.4997 28.9204C41.0997 27.9071 40.8997 26.6671 40.8997 25.2004C40.8997 19.4404 45.2464 16.5604 53.9397 16.5604H55.8597V14.8404C55.353 14.8137 54.8864 14.7871 54.4597 14.7604C54.0597 14.7337 53.6864 14.7204 53.3397 14.7204C49.7397 14.7204 46.633 15.1604 44.0197 16.0404L42.8597 9.16039C46.0597 8.17372 49.753 7.68039 53.9397 7.68039ZM50.5797 24.1604V26.1204H52.5797C53.9664 26.1204 54.873 25.9604 55.2997 25.6404C55.673 25.2937 55.8597 24.8804 55.8597 24.4004V22.1204H53.8997C52.753 22.1204 51.913 22.2404 51.3797 22.4804C50.8464 22.7204 50.5797 23.2804 50.5797 24.1604ZM70.7272 14.6004H68.3272V8.40039H70.7272V4.56039L80.3272 2.16039V8.40039H83.6472V14.6004H80.3272V25.5204C80.7272 25.6004 81.1672 25.6804 81.6472 25.7604C82.1272 25.8137 82.6339 25.8537 83.1672 25.8804L82.7272 32.9204C78.3539 32.9204 75.5005 32.6804 74.1672 32.2004C73.0472 31.8004 72.1939 31.2937 71.6072 30.6804C71.0205 30.0404 70.7272 29.1071 70.7272 27.8804V14.6004ZM104.828 25.2004L105.428 32.1204C103.775 32.7871 101.628 33.1204 98.9881 33.1204C94.5081 33.1204 91.2681 32.0804 89.2681 30.0004C87.2681 27.8937 86.2681 24.6937 86.2681 20.4004C86.2681 16.1071 87.2681 12.9204 89.2681 10.8404C91.2681 8.73372 94.5081 7.68039 98.9881 7.68039C101.841 7.68039 103.988 8.01372 105.428 8.68039L104.268 15.2004C103.415 15.0404 102.655 14.9204 101.988 14.8404C101.321 14.7337 100.735 14.6804 100.228 14.6804C97.8015 14.6804 96.5881 15.5337 96.5881 17.2404V25.8404C97.0415 25.9204 97.5615 25.9871 98.1481 26.0404C98.7615 26.0937 99.4415 26.1204 100.188 26.1204C101.681 26.1204 103.228 25.8137 104.828 25.2004ZM118.859 17.6004V32.4004H109.259V1.20039L118.859 0.480389V9.28039C120.913 8.21372 123.179 7.68039 125.659 7.68039C128.166 7.68039 130.059 8.17372 131.339 9.16039C132.619 10.1204 133.259 11.4671 133.259 13.2004V32.4004H123.659V15.6004H122.179C121.006 15.6004 120.153 15.7204 119.619 15.9604C119.113 16.2004 118.859 16.7471 118.859 17.6004ZM137.334 8.40039H146.934V26.1204H148.414C149.587 26.1204 150.427 26.0004 150.934 25.7604C151.467 25.5204 151.734 24.9604 151.734 24.0804V8.40039H161.334V32.4004H156.534L153.734 29.6804C151.814 31.9737 149.081 33.1204 145.534 33.1204C142.681 33.1204 140.601 32.5204 139.294 31.3204C137.987 30.0937 137.334 28.0537 137.334 25.2004V8.40039ZM166.134 40.3204V8.40039H170.934L172.694 10.8004C174.108 8.72039 176.721 7.68039 180.534 7.68039C182.454 7.68039 184.068 8.02706 185.374 8.72039C186.681 9.41372 187.734 10.3471 188.534 11.5204C189.361 12.6671 189.948 14.0137 190.294 15.5604C190.668 17.1071 190.854 18.7204 190.854 20.4004C190.854 22.0271 190.694 23.5604 190.374 25.0004C190.054 26.4404 189.521 27.7204 188.774 28.8404C188.028 29.9337 187.041 30.8004 185.814 31.4404C184.588 32.0804 183.068 32.4004 181.254 32.4004H175.734V39.6004L166.134 40.3204ZM175.734 16.4804V26.1204H177.214C178.388 26.1204 179.228 26.0004 179.734 25.7604C180.268 25.5204 180.534 24.9604 180.534 24.0804V14.6804H179.054C178.361 14.6804 177.801 14.7071 177.374 14.7604C176.948 14.8137 176.574 14.9871 176.254 15.2804C175.934 15.5471 175.761 15.9471 175.734 16.4804ZM197.009 9.36039C199.062 8.24039 201.876 7.68039 205.449 7.68039C209.049 7.68039 212.342 8.17372 215.329 9.16039L214.209 15.6804C212.956 15.3071 211.716 15.0404 210.489 14.8804C209.262 14.7204 208.009 14.6404 206.729 14.6404C206.356 14.6404 205.889 14.6537 205.329 14.6804C204.796 14.7071 204.182 14.7604 203.489 14.8404V16.3604C204.956 16.3604 206.462 16.4404 208.009 16.6004C209.556 16.7337 210.956 17.0804 212.209 17.6404C213.489 18.1737 214.529 18.9871 215.329 20.0804C216.156 21.1471 216.569 22.6137 216.569 24.4804C216.569 25.7871 216.422 26.9604 216.129 28.0004C215.836 29.0137 215.382 29.8271 214.769 30.4404C214.129 31.0537 213.462 31.5471 212.769 31.9204C212.102 32.2937 211.222 32.5604 210.129 32.7204C209.276 32.8537 208.356 32.9471 207.369 33.0004C206.409 33.0804 205.369 33.1204 204.249 33.1204C200.329 33.1204 196.742 32.6537 193.489 31.7204L194.689 24.9204C196.049 25.3204 197.449 25.6271 198.889 25.8404C200.329 26.0537 201.836 26.1604 203.409 26.1604C204.129 26.1604 204.809 26.1471 205.449 26.1204C206.116 26.0937 206.756 26.0404 207.369 25.9604V24.4404C204.809 24.4404 202.662 24.2804 200.929 23.9604C199.222 23.6137 197.836 23.0937 196.769 22.4004C195.729 21.7071 194.982 20.8004 194.529 19.6804C194.102 18.5604 193.889 17.2271 193.889 15.6804C193.889 12.5871 194.929 10.4804 197.009 9.36039Z" fill="black"/>
<path d="M243.908 1.20039L253.508 0.480389V25.5204C254.014 25.6271 254.468 25.7071 254.868 25.7604C255.268 25.8137 255.601 25.8537 255.868 25.8804L255.428 32.9204C251.348 32.9204 248.641 32.6804 247.308 32.2004C246.188 31.8004 245.334 31.2804 244.748 30.6404C244.188 30.0004 243.908 29.0804 243.908 27.8804V1.20039ZM268.352 32.4004H258.752V9.60039L268.352 8.40039V32.4004ZM258.232 3.88039C258.232 3.16039 258.312 2.56039 258.472 2.08039C258.632 1.57372 258.912 1.17372 259.312 0.880389C259.712 0.56039 260.258 0.333723 260.952 0.200388C261.645 0.0670547 262.525 0.000388145 263.592 0.000388145C264.658 0.000388145 265.525 0.0670547 266.192 0.200388C266.885 0.333723 267.432 0.56039 267.832 0.880389C268.232 1.17372 268.512 1.57372 268.672 2.08039C268.832 2.56039 268.912 3.16039 268.912 3.88039C268.912 4.60039 268.832 5.20039 268.672 5.68039C268.512 6.16039 268.232 6.56039 267.832 6.88039C267.432 7.17372 266.885 7.38706 266.192 7.52039C265.525 7.62706 264.658 7.68039 263.592 7.68039C262.818 7.68039 262.098 7.65372 261.432 7.60039C260.792 7.54706 260.232 7.40039 259.752 7.16039C259.272 6.89372 258.898 6.50706 258.632 6.00039C258.365 5.49372 258.232 4.78706 258.232 3.88039ZM289.726 32.4004H276.766L270.766 8.40039H280.366L283.006 24.0004H283.486L286.126 8.40039H295.726L289.726 32.4004ZM307.487 24.2404V25.9204C307.967 25.9737 308.447 26.0137 308.927 26.0404C309.407 26.0671 309.887 26.0804 310.367 26.0804C313.353 26.0804 316.367 25.6004 319.407 24.6404L320.527 31.6804C316.927 32.6404 313.38 33.1204 309.887 33.1204C305.407 33.1204 302.167 32.0804 300.167 30.0004C298.167 27.8937 297.167 24.6937 297.167 20.4004C297.167 16.1071 298.167 12.9204 300.167 10.8404C302.193 8.73372 305.433 7.68039 309.887 7.68039C312.127 7.68039 313.993 7.82706 315.487 8.12039C316.98 8.38706 318.18 8.85372 319.087 9.52039C320.02 10.1604 320.673 11.0404 321.047 12.1604C321.447 13.2537 321.647 14.6404 321.647 16.3204C321.647 17.7071 321.407 18.9071 320.927 19.9204C320.473 20.9071 319.7 21.7204 318.607 22.3604C317.513 23.0004 316.06 23.4804 314.247 23.8004C312.433 24.0937 310.18 24.2404 307.487 24.2404ZM307.487 16.7204V18.6804H309.447C310.62 18.6804 311.46 18.5604 311.967 18.3204C312.5 18.0804 312.767 17.5204 312.767 16.6404V14.6804H310.807C309.633 14.6804 308.78 14.8004 308.247 15.0404C307.74 15.2804 307.487 15.8404 307.487 16.7204Z" fill="#D70A0D"/>
<circle cx="231" cy="21.4004" r="8" fill="#D70A0D"/>
</svg>
